<svg width="71" height="50" viewBox="0 0 71 50" fill="none" xmlns="http://www.w3.org/2000/svg">
<rect width="70.9865" height="50" fill="#D2DD26"/>
<path d="M11.5913 37.1053C11.4704 36.6655 11.2287 35.8187 9.96576 35.8187C9.22801 35.8187 8.11513 36.3366 8.11513 38.3796C8.11513 39.6744 8.66949 40.8828 9.96576 40.8828C10.816 40.8828 11.4121 40.3731 11.5913 39.4894H13.121C12.8167 41.0637 11.7747 42.1612 9.93241 42.1612C7.98175 42.1612 6.58545 40.8541 6.58545 38.3631C6.58545 35.831 8.06095 34.5445 9.95325 34.5445C12.1498 34.5445 13.0376 36.0407 13.121 37.1053H11.5913V37.1053Z" fill="#656867"/>
<path d="M14.9926 38.6385L16.7932 36.6039H18.5438L16.6307 38.6796L18.5897 41.9721H16.8808L15.5887 39.6662L14.9926 40.2745V41.9721H13.5671V36.6039H14.9926V38.6385Z" fill="#656867"/>
<path d="M23.8082 39.28C23.8082 41.216 22.4953 42.1121 21.0365 42.1121C19.5818 42.1121 18.2563 41.2242 18.2563 39.2882C18.2563 37.3563 19.5818 36.4684 21.0365 36.4684C22.4953 36.4684 23.8082 37.3439 23.8082 39.28ZM19.7235 39.28C19.7235 39.9705 19.9361 40.9242 21.0365 40.9242C22.1368 40.9242 22.3411 39.9787 22.3411 39.2882C22.3411 38.6017 22.1368 37.6522 21.0365 37.6522C19.9361 37.6522 19.7235 38.5894 19.7235 39.28Z" fill="#656867"/>
<path d="M29.1723 36.6039V41.968H27.7468V37.7342H26.2171V39.3908C26.2171 41.4419 25.5919 42.0914 24.5874 42.0914C24.3373 42.0914 23.9289 42.0502 23.7205 41.9722V40.924C23.7496 40.9445 23.933 40.9651 24.1456 40.9651C24.5707 40.9651 24.7917 40.7554 24.7917 39.1195V36.608H29.1723V36.6039Z" fill="#656867"/>
<path d="M31.3273 38.6385L33.1279 36.6039H34.8744L32.9654 38.6796L34.9286 41.9721H33.2196L31.9234 39.6662L31.3273 40.2745V41.9721H29.9019V36.6039H31.3273V38.6385Z" fill="#656867"/>
<path d="M40.1471 39.28C40.1471 41.216 38.8341 42.1121 37.3753 42.1121C35.9207 42.1121 34.5952 41.2242 34.5952 39.2882C34.5952 37.3563 35.9207 36.4684 37.3753 36.4684C38.83 36.4684 40.1471 37.3439 40.1471 39.28ZM36.0624 39.28C36.0624 39.9705 36.2749 40.9242 37.3753 40.9242C38.4799 40.9242 38.6799 39.9787 38.6799 39.2882C38.6799 38.6017 38.4799 37.6522 37.3753 37.6522C36.2749 37.6522 36.0624 38.5894 36.0624 39.28Z" fill="#656867"/>
<path d="M40.6094 36.6039H43.0644C44.2773 36.6039 45.1692 37.093 45.1692 37.9891C45.1692 38.6057 44.7233 39.0044 44.1564 39.1441C44.7108 39.2716 45.3318 39.6209 45.3318 40.5006C45.3318 41.4953 44.5732 41.968 43.3395 41.968H40.6094V36.6039V36.6039ZM42.0349 38.7783H42.9643C43.4395 38.7783 43.7729 38.5892 43.7729 38.1699C43.7729 37.7301 43.452 37.5698 42.9768 37.5698H42.0349V38.7783ZM42.0349 41.0021H43.0852C43.6104 41.0021 43.9355 40.8418 43.9355 40.3115C43.9355 39.8429 43.5937 39.6251 43.0644 39.6251H42.0349V41.0021Z" fill="#656867"/>
<path d="M51.0421 39.28C51.0421 41.216 49.725 42.1121 48.2704 42.1121C46.8157 42.1121 45.4861 41.2242 45.4861 39.2882C45.4861 37.3563 46.8115 36.4684 48.2704 36.4684C49.725 36.4684 51.0421 37.3439 51.0421 39.28ZM46.9574 39.28C46.9574 39.9705 47.17 40.9242 48.2745 40.9242C49.3749 40.9242 49.5791 39.9787 49.5791 39.2882C49.5791 38.6017 49.3749 37.6522 48.2745 37.6522C47.17 37.6522 46.9574 38.5894 46.9574 39.28Z" fill="#656867"/>
<path d="M16.9598 33.3321C18.1728 33.3321 21.1696 33.1224 23.4037 31.5111V32.736H27.9219V27.3636L29.81 25.4358L33.9114 32.7319H39.3257L33.1111 22.3036L39.1632 15.731H33.6196L27.9219 22.1803V9.7954H23.4037V11.752C22.0241 10.2969 19.7941 9.19116 16.318 9.19116C8.79042 9.19116 7.38161 13.7086 7.38161 16.2365C7.38161 19.714 9.27392 21.6418 12.5709 22.431L17.2474 23.5697C19.7149 24.1698 21.478 24.6137 21.478 26.4141C21.478 28.8146 18.9147 29.3819 16.6097 29.3819C12.3791 29.3819 11.6747 26.9485 11.6747 25.6537H7.03149C7.03149 28.4981 8.50282 33.3321 16.9598 33.3321ZM20.0359 19.6524L14.3673 18.2918C13.4045 18.0698 11.8998 17.6917 11.8998 15.8913C11.8998 13.8401 14.1089 13.1413 15.9678 13.1413C20.1943 13.1413 20.5819 15.5748 20.7069 16.6147H23.4037V20.8896C22.4159 20.3265 21.2446 19.9524 20.0359 19.6524Z" fill="#656867"/>
</svg>
